<svg width="2211" height="981" xmlns="http://www.w3.org/2000/svg" xmlns:xlink="http://www.w3.org/1999/xlink" fill="#ffffff"><defs><style>
  text {
    fill: #212529;
    font-family: Helvetica Neue, Helvetica, Arial, sans-serif;
    font-size: 16px;
  }

  marker, text {
    fill-opacity: 1;
  }

  * {
    overflow: visible;
  }
</style></defs><svg x="640" y="70" width="630" height="400" class="Web Server" fill="#ffffff"><g><g><path d="M 0 8 l 8 -8 H 630 l -8 8 Z" stroke="black" fill="white" class="sc-gEvEer fkqzOi"></path><path d="M 630 0 V 392 l -8 8 V 8 Z" stroke="black" fill="white" class="sc-gEvEer fkqzOi"></path><rect x="0" y="8" width="622" height="391" stroke="black" fill="white" class="sc-fqkvVR uHYUy"></rect></g><text x="50%" y="30" dominant-baseline="middle" text-anchor="middle" font-weight="bold" pointer-events="none"><tspan x="50%" dy="-8" text-anchor="middle" font-size="85%">«Node»</tspan><tspan x="50%" dy="18" text-decoration="underline" text-anchor="middle">Web Server</tspan></text></g></svg><svg x="680" y="160" width="520" height="300" class="Front-End" fill="#ffffff"><g><rect width="100%" height="100%" stroke="black" fill="white" class="sc-fqkvVR uHYUy"></rect><text x="50%" y="28" dominant-baseline="auto" text-anchor="middle" font-weight="bold" pointer-events="none">Front-End</text><g transform="translate(494, 7)"><path d="M 0 0 L 13 0 L 19.2 7.25 L 19.2 24 L 0 24 L 0 0 Z" stroke-width="1.2" stroke-miterlimit="10" stroke="black" fill="white" class="sc-gEvEer fkqzOi"></path><path d="M 13 0 L 13 7.25 L 19.2 7.25" stroke-width="1.2" stroke-miterlimit="10" stroke="black" fill="none" class="sc-gEvEer bFSwyf"></path></g></g></svg><svg x="710" y="230" width="160" height="40" class="Map visualization" fill="#ffffff"><g><rect width="100%" height="100%" stroke="black" fill="white" class="sc-fqkvVR uHYUy"></rect><text x="50%" y="28" dominant-baseline="auto" text-anchor="middle" font-weight="bold" pointer-events="none">Map visualization</text><g transform="translate(134, 7)"><path d="M 0 0 L 13 0 L 19.2 7.25 L 19.2 24 L 0 24 L 0 0 Z" stroke-width="1.2" stroke-miterlimit="10" stroke="black" fill="white" class="sc-gEvEer fkqzOi"></path><path d="M 13 0 L 13 7.25 L 19.2 7.25" stroke-width="1.2" stroke-miterlimit="10" stroke="black" fill="none" class="sc-gEvEer bFSwyf"></path></g></g></svg><svg x="710" y="300" width="240" height="40" class="Report&amp;Statistics table view" fill="#ffffff"><g><rect width="100%" height="100%" stroke="black" fill="white" class="sc-fqkvVR uHYUy"></rect><text x="50%" y="28" dominant-baseline="auto" text-anchor="middle" font-weight="bold" pointer-events="none">Report&amp;Statistics table view</text><g transform="translate(214, 7)"><path d="M 0 0 L 13 0 L 19.2 7.25 L 19.2 24 L 0 24 L 0 0 Z" stroke-width="1.2" stroke-miterlimit="10" stroke="black" fill="white" class="sc-gEvEer fkqzOi"></path><path d="M 13 0 L 13 7.25 L 19.2 7.25" stroke-width="1.2" stroke-miterlimit="10" stroke="black" fill="none" class="sc-gEvEer bFSwyf"></path></g></g></svg><svg x="710" y="370" width="330" height="40" class="Notification&amp;Communication in-platform" fill="#ffffff"><g><rect width="100%" height="100%" stroke="black" fill="white" class="sc-fqkvVR uHYUy"></rect><text x="50%" y="28" dominant-baseline="auto" text-anchor="middle" font-weight="bold" pointer-events="none">Notification&amp;Communication in-platform</text><g transform="translate(304, 7)"><path d="M 0 0 L 13 0 L 19.2 7.25 L 19.2 24 L 0 24 L 0 0 Z" stroke-width="1.2" stroke-miterlimit="10" stroke="black" fill="white" class="sc-gEvEer fkqzOi"></path><path d="M 13 0 L 13 7.25 L 19.2 7.25" stroke-width="1.2" stroke-miterlimit="10" stroke="black" fill="none" class="sc-gEvEer bFSwyf"></path></g></g></svg><svg x="920" y="230" width="160" height="40" class="Details report view" fill="#ffffff"><g><rect width="100%" height="100%" stroke="black" fill="white" class="sc-fqkvVR uHYUy"></rect><text x="50%" y="28" dominant-baseline="auto" text-anchor="middle" font-weight="bold" pointer-events="none">Details report view</text><g transform="translate(134, 7)"><path d="M 0 0 L 13 0 L 19.2 7.25 L 19.2 24 L 0 24 L 0 0 Z" stroke-width="1.2" stroke-miterlimit="10" stroke="black" fill="white" class="sc-gEvEer fkqzOi"></path><path d="M 13 0 L 13 7.25 L 19.2 7.25" stroke-width="1.2" stroke-miterlimit="10" stroke="black" fill="none" class="sc-gEvEer bFSwyf"></path></g></g></svg><svg x="1000" y="310" width="160" height="40" class="Login/Logout" fill="#ffffff"><g><rect width="100%" height="100%" stroke="black" fill="white" class="sc-fqkvVR uHYUy"></rect><text x="50%" y="28" dominant-baseline="auto" text-anchor="middle" font-weight="bold" pointer-events="none">Login/Logout</text><g transform="translate(134, 7)"><path d="M 0 0 L 13 0 L 19.2 7.25 L 19.2 24 L 0 24 L 0 0 Z" stroke-width="1.2" stroke-miterlimit="10" stroke="black" fill="white" class="sc-gEvEer fkqzOi"></path><path d="M 13 0 L 13 7.25 L 19.2 7.25" stroke-width="1.2" stroke-miterlimit="10" stroke="black" fill="none" class="sc-gEvEer bFSwyf"></path></g></g></svg><svg x="610" y="570" width="710" height="370" class="Application Server" fill="#ffffff"><g><g><path d="M 0 8 l 8 -8 H 710 l -8 8 Z" stroke="black" fill="white" class="sc-gEvEer fkqzOi"></path><path d="M 710 0 V 362 l -8 8 V 8 Z" stroke="black" fill="white" class="sc-gEvEer fkqzOi"></path><rect x="0" y="8" width="702" height="361" stroke="black" fill="white" class="sc-fqkvVR uHYUy"></rect></g><text x="50%" y="30" dominant-baseline="middle" text-anchor="middle" font-weight="bold" pointer-events="none"><tspan x="50%" dy="-8" text-anchor="middle" font-size="85%">«Node»</tspan><tspan x="50%" dy="18" text-decoration="underline" text-anchor="middle">Application Server</tspan></text></g></svg><svg x="680" y="640" width="610" height="280" class="Front-End" fill="#ffffff"><g><rect width="100%" height="100%" stroke="black" fill="white" class="sc-fqkvVR uHYUy"></rect><text x="50%" y="28" dominant-baseline="auto" text-anchor="middle" font-weight="bold" pointer-events="none">Front-End</text><g transform="translate(584, 7)"><path d="M 0 0 L 13 0 L 19.2 7.25 L 19.2 24 L 0 24 L 0 0 Z" stroke-width="1.2" stroke-miterlimit="10" stroke="black" fill="white" class="sc-gEvEer fkqzOi"></path><path d="M 13 0 L 13 7.25 L 19.2 7.25" stroke-width="1.2" stroke-miterlimit="10" stroke="black" fill="none" class="sc-gEvEer bFSwyf"></path></g></g></svg><svg x="700" y="680" width="250" height="40" class="Account management service" fill="#ffffff"><g><rect width="100%" height="100%" stroke="black" fill="white" class="sc-fqkvVR uHYUy"></rect><text x="50%" y="28" dominant-baseline="auto" text-anchor="middle" font-weight="bold" pointer-events="none">Account management service</text><g transform="translate(224, 7)"><path d="M 0 0 L 13 0 L 19.2 7.25 L 19.2 24 L 0 24 L 0 0 Z" stroke-width="1.2" stroke-miterlimit="10" stroke="black" fill="white" class="sc-gEvEer fkqzOi"></path><path d="M 13 0 L 13 7.25 L 19.2 7.25" stroke-width="1.2" stroke-miterlimit="10" stroke="black" fill="none" class="sc-gEvEer bFSwyf"></path></g></g></svg><svg x="710" y="750" width="230" height="40" class="Report management service" fill="#ffffff"><g><rect width="100%" height="100%" stroke="black" fill="white" class="sc-fqkvVR uHYUy"></rect><text x="50%" y="28" dominant-baseline="auto" text-anchor="middle" font-weight="bold" pointer-events="none">Report management service</text><g transform="translate(204, 7)"><path d="M 0 0 L 13 0 L 19.2 7.25 L 19.2 24 L 0 24 L 0 0 Z" stroke-width="1.2" stroke-miterlimit="10" stroke="black" fill="white" class="sc-gEvEer fkqzOi"></path><path d="M 13 0 L 13 7.25 L 19.2 7.25" stroke-width="1.2" stroke-miterlimit="10" stroke="black" fill="none" class="sc-gEvEer bFSwyf"></path></g></g></svg><svg x="720" y="820" width="160" height="40" class="Social service" fill="#ffffff"><g><rect width="100%" height="100%" stroke="black" fill="white" class="sc-fqkvVR uHYUy"></rect><text x="50%" y="28" dominant-baseline="auto" text-anchor="middle" font-weight="bold" pointer-events="none">Social service</text><g transform="translate(134, 7)"><path d="M 0 0 L 13 0 L 19.2 7.25 L 19.2 24 L 0 24 L 0 0 Z" stroke-width="1.2" stroke-miterlimit="10" stroke="black" fill="white" class="sc-gEvEer fkqzOi"></path><path d="M 13 0 L 13 7.25 L 19.2 7.25" stroke-width="1.2" stroke-miterlimit="10" stroke="black" fill="none" class="sc-gEvEer bFSwyf"></path></g></g></svg><svg x="980" y="700" width="230" height="40" class="Public Consultation service" fill="#ffffff"><g><rect width="100%" height="100%" stroke="black" fill="white" class="sc-fqkvVR uHYUy"></rect><text x="50%" y="28" dominant-baseline="auto" text-anchor="middle" font-weight="bold" pointer-events="none">Public Consultation service</text><g transform="translate(204, 7)"><path d="M 0 0 L 13 0 L 19.2 7.25 L 19.2 24 L 0 24 L 0 0 Z" stroke-width="1.2" stroke-miterlimit="10" stroke="black" fill="white" class="sc-gEvEer fkqzOi"></path><path d="M 13 0 L 13 7.25 L 19.2 7.25" stroke-width="1.2" stroke-miterlimit="10" stroke="black" fill="none" class="sc-gEvEer bFSwyf"></path></g></g></svg><svg x="980" y="790" width="210" height="40" class="Statistics service" fill="#ffffff"><g><rect width="100%" height="100%" stroke="black" fill="white" class="sc-fqkvVR uHYUy"></rect><text x="50%" y="28" dominant-baseline="auto" text-anchor="middle" font-weight="bold" pointer-events="none">Statistics service</text><g transform="translate(184, 7)"><path d="M 0 0 L 13 0 L 19.2 7.25 L 19.2 24 L 0 24 L 0 0 Z" stroke-width="1.2" stroke-miterlimit="10" stroke="black" fill="white" class="sc-gEvEer fkqzOi"></path><path d="M 13 0 L 13 7.25 L 19.2 7.25" stroke-width="1.2" stroke-miterlimit="10" stroke="black" fill="none" class="sc-gEvEer bFSwyf"></path></g></g></svg><svg x="20" y="610" width="350" height="160" class="Authentication&amp;Verification System" fill="#ffffff"><g><g><path d="M 0 8 l 8 -8 H 350 l -8 8 Z" stroke="black" fill="white" class="sc-gEvEer fkqzOi"></path><path d="M 350 0 V 152 l -8 8 V 8 Z" stroke="black" fill="white" class="sc-gEvEer fkqzOi"></path><rect x="0" y="8" width="342" height="151" stroke="black" fill="white" class="sc-fqkvVR uHYUy"></rect></g><text x="50%" y="30" dominant-baseline="middle" text-anchor="middle" font-weight="bold" pointer-events="none"><tspan x="50%" dy="-8" text-anchor="middle" font-size="85%">«Node»</tspan><tspan x="50%" dy="18" text-decoration="underline" text-anchor="middle">Authentication&amp;Verification System</tspan></text></g></svg><svg x="50" y="700" width="160" height="40" class="Email service" fill="#ffffff"><g><rect width="100%" height="100%" stroke="black" fill="white" class="sc-fqkvVR uHYUy"></rect><text x="50%" y="28" dominant-baseline="auto" text-anchor="middle" font-weight="bold" pointer-events="none">Email service</text><g transform="translate(134, 7)"><path d="M 0 0 L 13 0 L 19.2 7.25 L 19.2 24 L 0 24 L 0 0 Z" stroke-width="1.2" stroke-miterlimit="10" stroke="black" fill="white" class="sc-gEvEer fkqzOi"></path><path d="M 13 0 L 13 7.25 L 19.2 7.25" stroke-width="1.2" stroke-miterlimit="10" stroke="black" fill="none" class="sc-gEvEer bFSwyf"></path></g></g></svg><svg x="40" y="220" width="270" height="140" class="StreetMap " fill="#ffffff"><g><g><path d="M 0 8 l 8 -8 H 270 l -8 8 Z" stroke="black" fill="white" class="sc-gEvEer fkqzOi"></path><path d="M 270 0 V 132 l -8 8 V 8 Z" stroke="black" fill="white" class="sc-gEvEer fkqzOi"></path><rect x="0" y="8" width="262" height="131" stroke="black" fill="white" class="sc-fqkvVR uHYUy"></rect></g><text x="50%" y="30" dominant-baseline="middle" text-anchor="middle" font-weight="bold" pointer-events="none"><tspan x="50%" dy="-8" text-anchor="middle" font-size="85%">«node»</tspan><tspan x="50%" dy="18" text-decoration="underline" text-anchor="middle">StreetMap </tspan></text></g></svg><svg x="40" y="20" width="260" height="150" class="Notification" fill="#ffffff"><g><g><path d="M 0 8 l 8 -8 H 260 l -8 8 Z" stroke="black" fill="white" class="sc-gEvEer fkqzOi"></path><path d="M 260 0 V 142 l -8 8 V 8 Z" stroke="black" fill="white" class="sc-gEvEer fkqzOi"></path><rect x="0" y="8" width="252" height="141" stroke="black" fill="white" class="sc-fqkvVR uHYUy"></rect></g><text x="50%" y="30" dominant-baseline="middle" text-anchor="middle" font-weight="bold" pointer-events="none"><tspan x="50%" dy="-8" text-anchor="middle" font-size="85%">«node»</tspan><tspan x="50%" dy="18" text-decoration="underline" text-anchor="middle">Notification</tspan></text></g></svg><svg x="60" y="100" width="160" height="40" class="Email service" fill="#ffffff"><g><rect width="100%" height="100%" stroke="black" fill="white" class="sc-fqkvVR uHYUy"></rect><text x="50%" y="28" dominant-baseline="auto" text-anchor="middle" font-weight="bold" pointer-events="none">Email service</text><g transform="translate(134, 7)"><path d="M 0 0 L 13 0 L 19.2 7.25 L 19.2 24 L 0 24 L 0 0 Z" stroke-width="1.2" stroke-miterlimit="10" stroke="black" fill="white" class="sc-gEvEer fkqzOi"></path><path d="M 13 0 L 13 7.25 L 19.2 7.25" stroke-width="1.2" stroke-miterlimit="10" stroke="black" fill="none" class="sc-gEvEer bFSwyf"></path></g></g></svg><svg x="50" y="800" width="280" height="160" class="Cloude Service" fill="#ffffff"><g><g><path d="M 0 8 l 8 -8 H 280 l -8 8 Z" stroke="black" fill="white" class="sc-gEvEer fkqzOi"></path><path d="M 280 0 V 152 l -8 8 V 8 Z" stroke="black" fill="white" class="sc-gEvEer fkqzOi"></path><rect x="0" y="8" width="272" height="151" stroke="black" fill="white" class="sc-fqkvVR uHYUy"></rect></g><text x="50%" y="30" dominant-baseline="middle" text-anchor="middle" font-weight="bold" pointer-events="none"><tspan x="50%" dy="-8" text-anchor="middle" font-size="85%">«node»</tspan><tspan x="50%" dy="18" text-decoration="underline" text-anchor="middle">Cloude Service</tspan></text></g></svg><svg x="80" y="880" width="160" height="40" class="Relational DB" fill="#ffffff"><g><rect width="100%" height="100%" stroke="black" fill="white" class="sc-fqkvVR uHYUy"></rect><text x="50%" y="28" dominant-baseline="auto" text-anchor="middle" font-weight="bold" pointer-events="none">Relational DB</text><g transform="translate(134, 7)"><path d="M 0 0 L 13 0 L 19.2 7.25 L 19.2 24 L 0 24 L 0 0 Z" stroke-width="1.2" stroke-miterlimit="10" stroke="black" fill="white" class="sc-gEvEer fkqzOi"></path><path d="M 13 0 L 13 7.25 L 19.2 7.25" stroke-width="1.2" stroke-miterlimit="10" stroke="black" fill="none" class="sc-gEvEer bFSwyf"></path></g></g></svg><svg x="1450" y="160" width="490" height="310" class="Client" fill="#ffffff"><g><g><path d="M 0 8 l 8 -8 H 490 l -8 8 Z" stroke="black" fill="white" class="sc-gEvEer fkqzOi"></path><path d="M 490 0 V 302 l -8 8 V 8 Z" stroke="black" fill="white" class="sc-gEvEer fkqzOi"></path><rect x="0" y="8" width="482" height="301" stroke="black" fill="white" class="sc-fqkvVR uHYUy"></rect></g><text x="50%" y="30" dominant-baseline="middle" text-anchor="middle" font-weight="bold" pointer-events="none"><tspan x="50%" dy="-8" text-anchor="middle" font-size="85%">«node»</tspan><tspan x="50%" dy="18" text-decoration="underline" text-anchor="middle">Client</tspan></text></g></svg><svg x="1520" y="240" width="160" height="40" class="Citizen interface" fill="#ffffff"><g><rect width="100%" height="100%" stroke="black" fill="white" class="sc-fqkvVR uHYUy"></rect><text x="50%" y="28" dominant-baseline="auto" text-anchor="middle" font-weight="bold" pointer-events="none">Citizen interface</text><g transform="translate(134, 7)"><path d="M 0 0 L 13 0 L 19.2 7.25 L 19.2 24 L 0 24 L 0 0 Z" stroke-width="1.2" stroke-miterlimit="10" stroke="black" fill="white" class="sc-gEvEer fkqzOi"></path><path d="M 13 0 L 13 7.25 L 19.2 7.25" stroke-width="1.2" stroke-miterlimit="10" stroke="black" fill="none" class="sc-gEvEer bFSwyf"></path></g></g></svg><svg x="1550" y="300" width="160" height="40" class="Admini. interface" fill="#ffffff"><g><rect width="100%" height="100%" stroke="black" fill="white" class="sc-fqkvVR uHYUy"></rect><text x="50%" y="28" dominant-baseline="auto" text-anchor="middle" font-weight="bold" pointer-events="none">Admini. interface</text><g transform="translate(134, 7)"><path d="M 0 0 L 13 0 L 19.2 7.25 L 19.2 24 L 0 24 L 0 0 Z" stroke-width="1.2" stroke-miterlimit="10" stroke="black" fill="white" class="sc-gEvEer fkqzOi"></path><path d="M 13 0 L 13 7.25 L 19.2 7.25" stroke-width="1.2" stroke-miterlimit="10" stroke="black" fill="none" class="sc-gEvEer bFSwyf"></path></g></g></svg><svg x="1600" y="370" width="160" height="40" class="Municipal interface" fill="#ffffff"><g><rect width="100%" height="100%" stroke="black" fill="white" class="sc-fqkvVR uHYUy"></rect><text x="50%" y="28" dominant-baseline="auto" text-anchor="middle" font-weight="bold" pointer-events="none">Municipal interface</text><g transform="translate(134, 7)"><path d="M 0 0 L 13 0 L 19.2 7.25 L 19.2 24 L 0 24 L 0 0 Z" stroke-width="1.2" stroke-miterlimit="10" stroke="black" fill="white" class="sc-gEvEer fkqzOi"></path><path d="M 13 0 L 13 7.25 L 19.2 7.25" stroke-width="1.2" stroke-miterlimit="10" stroke="black" fill="none" class="sc-gEvEer bFSwyf"></path></g></g></svg><svg x="1390" y="580" width="800" height="50" class="Whatever the actor use phone, PC, ipad, the only accessing way is website without using application" fill="#ffffff"><g><path d="M 0 0 L 785 0 L 800 15 L 800 50 L 0 50 L 0 0 Z" stroke-width="1.2" stroke-miterlimit="10" stroke="#949494" fill="#ededed" class="sc-gEvEer dNlWWw"></path><path d="M 785 0 L 785 15 L 800 15" stroke-width="1.2" stroke-miterlimit="10" stroke="black" fill="none" class="sc-gEvEer bFSwyf"></path><text x="400" y="25" text-anchor="middle" width="800" height="50" font-weight="bold" pointer-events="none"><tspan x="400" dy="5.5">Whatever the actor use phone, PC, ipad, the only accessing way is website without using application</tspan></text></g></svg><svg x="955" y="470" width="39.687496185302734" height="100" class="https" fill="#ffffff"><g><polyline points="0 0,0 100" stroke-width="1" stroke="black" fill="none" class="sc-aXZVg eMElBf"></polyline><text x="0" y="50" dominant-baseline="middle" text-anchor="start" font-weight="bold" pointer-events="none" dx="5">https</text></g></svg><svg x="1270" y="275" width="180" height="41" class="HTTPS" fill="#ffffff"><g><polyline points="0 40,180 40" stroke-width="1" stroke="black" fill="none" class="sc-aXZVg eMElBf"></polyline><text x="90" y="40" dominant-baseline="text-after-edge" text-anchor="middle" font-weight="bold" pointer-events="none" dy="-5">HTTPS</text></g></svg><svg x="330" y="830" width="280" height="41" class="HTTPS" fill="#ffffff"><g><polyline points="0 40,280 40" stroke-width="1" stroke="black" fill="none" class="sc-aXZVg eMElBf"></polyline><text x="140" y="40" dominant-baseline="text-after-edge" text-anchor="middle" font-weight="bold" pointer-events="none" dy="-5">HTTPS</text></g></svg><svg x="1695" y="470" width="1" height="110" class="" fill="#ffffff"><g><polyline points="0 110,0 0" stroke-width="1" stroke="black" fill="none" class="sc-aXZVg eMElBf"></polyline><text x="0" y="55" dominant-baseline="middle" text-anchor="start" font-weight="bold" pointer-events="none" dx="5"></text></g></svg><svg x="370" y="650" width="240" height="41" class="HTTPS" fill="#ffffff"><g><polyline points="0 40,240 40" stroke-width="1" stroke="black" fill="none" class="sc-aXZVg eMElBf"></polyline><text x="120" y="40" dominant-baseline="text-after-edge" text-anchor="middle" font-weight="bold" pointer-events="none" dy="-5">HTTPS</text></g></svg><svg x="310" y="250" width="330" height="41" class="HTTPS" fill="#ffffff"><g><polyline points="0 40,330 40" stroke-width="1" stroke="black" fill="none" class="sc-aXZVg eMElBf"></polyline><text x="165" y="40" dominant-baseline="text-after-edge" text-anchor="middle" font-weight="bold" pointer-events="none" dy="-5">HTTPS</text></g></svg><svg x="300" y="80" width="340" height="41" class="HTTPS" fill="#ffffff"><g><polyline points="0 40,340 40" stroke-width="1" stroke="black" fill="none" class="sc-aXZVg eMElBf"></polyline><text x="170" y="40" dominant-baseline="text-after-edge" text-anchor="middle" font-weight="bold" pointer-events="none" dy="-5">HTTPS</text></g></svg></svg>